<?xml version="1.0" encoding="utf-8"?>
<!-- Generator: Adobe Illustrator 21.0.0, SVG Export Plug-In . SVG Version: 6.00 Build 0)  -->
<svg version="1.1" id="Layer_1" xmlns="http://www.w3.org/2000/svg" xmlns:xlink="http://www.w3.org/1999/xlink" x="0px" y="0px"
	 width="595.3px" height="444px" viewBox="0 0 595.3 444" style="enable-background:new 0 0 595.3 444;" xml:space="preserve">
<style type="text/css">
	.st0{fill:#ABCAEB;}
	.st1{fill:#5697D1;}
	.st2{fill:none;stroke:#62A6CC;stroke-miterlimit:10;}
</style>
<g>
	<path class="st0" d="M146.2,109.7c17.5-9.6,34.9-19.2,52.4-28.8c17.9-9.9,35.9-19.7,53.8-29.6c6.3-3.5,12.7-7,19-10.4
		c2-1.1,4-2.2,6.1-3.3c0.7-0.4,1.3-0.8,2-1.1c3-1.3,4.8,0.2,7.7,1.7c2.3,1.3,4.7,2.6,7,3.9c5.8,3.2,11.6,6.4,17.3,9.6
		c8.1,4.5,16.2,8.9,24.2,13.4c9.2,5.1,18.4,10.2,27.7,15.3c9.2,5.1,18.4,10.2,27.6,15.3c8,4.4,16.1,8.9,24.1,13.3
		c5.7,3.2,11.4,6.3,17.1,9.5c1.2,0.7,7.2,3.1,7.4,4.6c0.8,10,0.2,20.3,0.2,30.3c0.1,21.2,0.1,42.3,0.2,63.5c0,21,0.1,42.1,0.1,63.1
		c0,5.4,0,10.8,0,16.1c0,3.1,1.4,12.1-0.2,14.1c-0.8,1-1.9,1.5-3,2c-4.5,2.2-8.9,4.8-13.3,7.3c-9.9,5.5-19.8,11-29.7,16.5
		c-12.5,7-25,13.9-37.5,20.9c-12.3,6.9-24.6,13.7-36.9,20.6c-9.3,5.2-18.5,10.3-27.8,15.4c-2.1,1.2-4.2,2.3-6.3,3.5
		c-0.7,0.4-1.4,0.8-2.1,1.1c-2.2,1.1-3.5-0.3-5.7-1.4c-0.4-0.2-0.8-0.4-1.2-0.7c-4.3-2.4-8.7-4.8-13-7.1
		c-9.8-5.4-19.6-10.8-29.4-16.2c-12.4-6.8-24.9-13.7-37.3-20.5c-12.2-6.7-24.4-13.4-36.6-20.1c-9.1-5-18.2-10-27.3-15
		c-2-1.1-9.9-4-10-6.7c0-0.3,0-0.6,0-0.8c0-0.6,0-1.1,0-1.7c0-0.8,0-1.7,0-2.5c0-1.1,0-2.2,0-3.3c0-1.3,0-2.6,0-4c0-1.5,0-3.1,0-4.6
		c0-1.7,0-3.5,0-5.2c0-1.9,0-3.8,0-5.7c0-2.1,0-4.1,0-6.2c0-2.2,0-4.4-0.1-6.6c0-2.3,0-4.7-0.1-7c0-2.4,0-4.9-0.1-7.3
		c0-2.5,0-5.1-0.1-7.6c0-2.6,0-5.2-0.1-7.8c0-2.6,0-5.3-0.1-7.9c0-2.7,0-5.4-0.1-8c0-2.7,0-5.4-0.1-8.1c0-2.7,0-5.4-0.1-8.1
		c0-2.7,0-5.3-0.1-8c0-2.6,0-5.2-0.1-7.9c0-2.6,0-5.1-0.1-7.7c0-2.5,0-5-0.1-7.4c0-2.4,0-4.8-0.1-7.2c0-2.3,0-4.5-0.1-6.8
		c0-2.1,0-4.3,0-6.4c0-2,0-4,0-5.9c0-1.8,0-3.6,0-5.4c0-1.6,0-3.2,0-4.9c0-1.4,0-2.8,0-4.2c0-1.2,0-2.4,0-3.6c0-0.9,0-1.9,0-2.8
		c0-0.7,0-1.4,0-2c0-0.4,0-0.8,0-1.2c-0.1-0.7-0.1-1.3-0.1-2c0-0.1,0-0.2,0-0.3c0-0.1-0.1-0.2-0.1-0.3c0-0.1,0.1-0.1,0.2-0.1
		c2.3-0.9,4.3-2.3,6.4-3.5c2.2-1.2,4.3-2.4,6.5-3.6C138.2,113.9,142.2,111.9,146.2,109.7z"/>
</g>
<g>
	<path class="st1" d="M215.7,163.3c8.7-4.8,17.5-9.6,26.2-14.4c9-4.9,18-9.9,26.9-14.8c3.2-1.7,6.3-3.5,9.5-5.2c1-0.6,2-1.1,3-1.7
		c0.3-0.2,0.6-0.4,1-0.5c1.5-0.7,2.4,0.1,3.8,0.9c1.2,0.6,2.3,1.3,3.5,1.9c2.9,1.6,5.8,3.2,8.7,4.8c4,2.2,8.1,4.5,12.1,6.7
		c4.6,2.5,9.2,5.1,13.8,7.6c4.6,2.5,9.2,5.1,13.8,7.6c4,2.2,8,4.4,12.1,6.7c2.9,1.6,5.7,3.2,8.6,4.7c0.6,0.3,3.6,1.6,3.7,2.3
		c0.4,5,0.1,10.1,0.1,15.1c0,10.6,0.1,21.2,0.1,31.8c0,10.5,0,21,0.1,31.6c0,2.7,0,5.4,0,8.1c0,1.6,0.7,6.1-0.1,7.1
		c-0.4,0.5-0.9,0.8-1.5,1c-2.3,1.1-4.4,2.4-6.6,3.6c-4.9,2.7-9.9,5.5-14.8,8.2c-6.3,3.5-12.5,7-18.8,10.5
		c-6.2,3.4-12.3,6.9-18.5,10.3c-4.6,2.6-9.3,5.2-13.9,7.7c-1,0.6-2.1,1.2-3.1,1.7c-0.3,0.2-0.7,0.4-1,0.6c-1.1,0.5-1.8-0.1-2.8-0.7
		c-0.2-0.1-0.4-0.2-0.6-0.3c-2.2-1.2-4.3-2.4-6.5-3.6c-4.9-2.7-9.8-5.4-14.7-8.1c-6.2-3.4-12.4-6.8-18.6-10.3
		c-6.1-3.4-12.2-6.7-18.3-10.1c-4.6-2.5-9.1-5-13.7-7.5c-1-0.6-4.9-2-5-3.4c0-0.1,0-0.3,0-0.4c0-0.3,0-0.6,0-0.8c0-0.4,0-0.8,0-1.3
		c0-0.5,0-1.1,0-1.6c0-0.7,0-1.3,0-2c0-0.8,0-1.5,0-2.3c0-0.9,0-1.7,0-2.6c0-1,0-1.9,0-2.9c0-1,0-2.1,0-3.1c0-1.1,0-2.2,0-3.3
		c0-1.2,0-2.3,0-3.5c0-1.2,0-2.4,0-3.7c0-1.3,0-2.5,0-3.8c0-1.3,0-2.6,0-3.9c0-1.3,0-2.6,0-4c0-1.3,0-2.7,0-4c0-1.3,0-2.7,0-4
		c0-1.3,0-2.7,0-4c0-1.3,0-2.7,0-4c0-1.3,0-2.6,0-3.9c0-1.3,0-2.6,0-3.8c0-1.2,0-2.5,0-3.7c0-1.2,0-2.4,0-3.6c0-1.1,0-2.3,0-3.4
		c0-1.1,0-2.1,0-3.2c0-1,0-2,0-3c0-0.9,0-1.8,0-2.7c0-0.8,0-1.6,0-2.4c0-0.7,0-1.4,0-2.1c0-0.6,0-1.2,0-1.8c0-0.5,0-0.9,0-1.4
		c0-0.3,0-0.7,0-1c0-0.2,0-0.4,0-0.6c0-0.3,0-0.7,0-1c0,0,0-0.1,0-0.1c0,0,0-0.1,0-0.1c0,0,0.1-0.1,0.1-0.1c1.1-0.4,2.1-1.2,3.2-1.8
		c1.1-0.6,2.2-1.2,3.3-1.8C211.7,165.4,213.7,164.3,215.7,163.3z"/>
</g>
<line class="st2" x1="121.2" y1="123.2" x2="283.1" y2="212"/>
<line class="st2" x1="123.4" y1="310" x2="204" y2="263.3"/>
<line class="st2" x1="283.3" y1="396.4" x2="283.3" y2="211.6"/>
<line class="st2" x1="283.3" y1="211.9" x2="436.3" y2="122.6"/>
<line class="st2" x1="361.3" y1="263.2" x2="439.9" y2="308.1"/>
</svg>
